Coordinates
version=1
nRows=30
nColumns=30
inDegrees=yes

Units are S.I. units (second, meters, Newtons, ...)
Angles are in degrees.

endheader
time	floatyaw	floatroll	floatpitch	floatx	floaty	floatz	pro_sup_l	deviation_l	flexion_l	cmc_flexion_l	cmc_abduction_l	mp_flexion_l	ip_flexion_l	2mcp_flexion_l	2mcp_abduction_l	2pm_flexion_l	2md_flexion_l	3mcp_flexion_l	3mcp_abduction_l	3pm_flexion_l	3md_flexion_l	4mcp_flexion_l	4mcp_abduction_l	4pm_flexion_l	4md_flexion_l	5mcp_flexion_l	5mcp_abduction_l	5pm_flexion_l	5md_flexion_l
-0.995000	-3.856690	-4.835354	96.479781	-0.109514	-0.183946	-0.040452	86.760894	-0.388434	-2.847920	18.064668	3.975176	-21.245508	-33.911843	36.705674	10.056624	47.324898	34.395317	20.532051	4.860512	46.625737	32.975651	8.674718	-4.964820	61.630244	42.756440	0.918379	-8.984092	62.047148	43.305988
-0.985000	-3.856690	-4.835354	96.479781	-0.109511	-0.183955	-0.040427	86.752417	-0.406920	-2.851654	18.045793	3.952024	-21.251033	-33.912483	36.721329	10.040820	47.349633	34.407894	20.527310	4.869238	46.635269	32.985719	8.674740	-4.965223	61.649587	42.768176	0.938309	-8.987674	62.027347	43.293333
-0.975000	-3.856690	-4.835354	96.479781	-0.109508	-0.183961	-0.040405	86.748883	-0.423219	-2.854635	18.029074	3.925293	-21.260397	-33.917039	36.734008	10.028528	47.379885	34.424674	20.522286	4.879216	46.655104	33.000503	8.688683	-4.971508	61.670911	42.779579	0.955170	-8.978273	62.005168	43.281026
-0.965000	-3.856690	-4.835354	96.479781	-0.109503	-0.183961	-0.040387	86.753961	-0.433716	-2.857319	18.014117	3.890425	-21.274413	-33.925416	36.742887	10.022609	47.410367	34.443230	20.518709	4.888051	46.683826	33.019382	8.715854	-4.982370	61.692998	42.790443	0.968667	-8.956323	61.989799	43.272483
-0.955000	-3.856690	-4.835354	96.479781	-0.109495	-0.183957	-0.040372	86.768482	-0.436608	-2.860666	18.000370	3.846428	-21.291747	-33.936084	36.749401	10.023391	47.435907	34.460531	20.519261	4.893266	46.717164	33.040004	8.750163	-4.994593	61.714884	42.800987	0.980320	-8.927182	61.988700	43.269855
-0.945000	-3.856690	-4.835354	96.479781	-0.109485	-0.183950	-0.040359	86.789558	-0.432914	-2.865998	17.986855	3.796712	-21.309571	-33.946725	36.756875	10.028473	47.453620	34.473911	20.526797	4.893396	46.749260	33.058834	8.783062	-5.004618	61.735538	42.811238	0.992246	-8.898839	62.003666	43.272923
-0.935000	-3.856690	-4.835354	96.479781	-0.109472	-0.183945	-0.040346	86.811540	-0.426341	-2.874380	17.971950	3.747588	-21.325169	-33.955339	36.768951	10.034063	47.463833	34.481969	20.543243	4.888617	46.775136	33.072671	8.807655	-5.010269	61.753901	42.820744	1.005681	-8.878302	62.029660	43.279118
-0.925000	-3.856690	-4.835354	96.479781	-0.109458	-0.183943	-0.040330	86.828639	-0.421708	-2.885927	17.953694	3.704823	-21.337760	-33.961452	36.787953	10.036909	47.469412	34.485007	20.568697	4.880551	46.792884	33.080160	8.821836	-5.011691	61.769155	42.828671	1.020205	-8.868334	62.057283	43.284721
-0.915000	-3.856690	-4.835354	96.479781	-0.109443	-0.183945	-0.040310	86.837854	-0.422584	-2.899610	17.930776	3.670129	-21.349432	-33.966879	36.814277	10.035647	47.474160	34.484763	20.601163	4.871418	46.804361	33.082359	8.828947	-5.011017	61.780972	42.834162	1.034257	-8.866336	62.077601	43.286636
-0.905000	-3.856690	-4.835354	96.479781	-0.109429	-0.183948	-0.040287	86.840522	-0.429475	-2.913694	17.903641	3.639857	-21.364391	-33.975421	36.846840	10.030920	47.481260	34.483557	20.637013	4.863067	46.814073	33.082149	8.835768	-5.010994	61.789610	42.836771	1.046585	-8.865945	62.086530	43.283746
-0.895000	-3.856690	-4.835354	96.479781	-0.109414	-0.183950	-0.040263	86.841547	-0.439655	-2.926371	17.874715	3.606848	-21.386774	-33.991332	36.883686	10.024429	47.492453	34.483338	20.671855	4.856443	46.826970	33.082945	8.848889	-5.013438	61.795692	42.836794	1.057622	-8.860400	62.086067	43.277049
-0.885000	-3.856690	-4.835354	96.479781	-0.109399	-0.183948	-0.040241	86.846638	-0.448780	-2.936116	17.847210	3.564336	-21.418262	-34.017202	36.921988	10.017620	47.508159	34.485172	20.701350	4.851729	46.846263	33.087510	8.871194	-5.018363	61.799695	42.835303	1.070070	-8.845901	62.081788	43.268556
-0.875000	-3.856690	-4.835354	96.479781	-0.109384	-0.183939	-0.040223	86.859088	-0.453327	-2.941812	17.823191	3.509539	-21.456871	-34.052387	36.957619	10.010906	47.528240	34.489444	20.721904	4.848958	46.872396	33.097399	8.900234	-5.024214	61.801710	42.833900	1.088527	-8.823356	62.078643	43.259771
-0.865000	-3.856690	-4.835354	96.479781	-0.109370	-0.183927	-0.040207	86.877988	-0.452444	-2.943021	17.802265	3.445023	-21.497358	-34.092746	36.985292	10.003998	47.552768	34.496497	20.731544	4.848504	46.903578	33.112978	8.929543	-5.028983	61.802147	42.834409	1.118128	-8.797723	62.077974	43.250863
-0.855000	-3.856690	-4.835354	96.479781	-0.109357	-0.183913	-0.040193	86.898971	-0.448236	-2.940461	17.781750	3.377642	-21.532752	-34.131640	37.000132	9.997050	47.582152	34.507066	20.730913	4.850994	46.937292	33.133599	8.952422	-5.031485	61.803140	42.838604	1.162332	-8.775313	62.077365	43.241052
-0.845000	-3.856690	-4.835354	96.479781	-0.109344	-0.183902	-0.040179	86.917083	-0.444390	-2.936202	17.758018	3.316150	-21.556285	-34.161657	37.000371	9.991515	47.616525	34.522120	20.723668	4.856656	46.971666	33.157624	8.965979	-5.032003	61.809079	42.847778	1.220622	-8.760426	62.072815	43.229792
-0.835000	-3.856690	-4.835354	96.479781	-0.109332	-0.183896	-0.040163	86.929868	-0.443931	-2.933123	17.728131	3.268616	-21.563483	-34.176742	36.989520	9.989606	47.654916	34.542149	20.715458	4.864630	47.005855	33.182509	8.972781	-5.031918	61.824791	42.862064	1.287341	-8.753083	62.061492	43.217817
-0.825000	-3.856690	-4.835354	96.479781	-0.109318	-0.183896	-0.040146	86.938561	-0.447445	-2.933757	17.691103	3.240048	-21.554165	-34.174482	36.975999	9.992487	47.694918	34.566390	20.711689	4.872868	47.039384	33.205275	8.979039	-5.032722	61.852019	42.879845	1.352585	-8.749067	62.043607	43.207344
-0.815000	-3.856690	-4.835354	96.479781	-0.109302	-0.183901	-0.040129	86.946608	-0.452845	-2.939311	17.648523	3.230477	-21.533532	-34.157780	36.969746	9.998713	47.733155	34.592497	20.715363	4.878897	47.071048	33.223327	8.990733	-5.035230	61.886869	42.897950	1.405053	-8.742297	62.022899	43.201425
-0.805000	-3.856690	-4.835354	96.479781	-0.109284	-0.183908	-0.040114	86.956784	-0.456782	-2.949540	17.604347	3.234348	-21.511130	-34.134662	36.977581	10.004490	47.766409	34.616986	20.726305	4.881065	47.098323	33.235219	9.010315	-5.039449	61.920643	42.912843	1.435818	-8.728267	62.005926	43.202937
-0.795000	-3.856690	-4.835354	96.479781	-0.109264	-0.183919	-0.040105	86.969140	-0.456693	-2.963409	17.563674	3.242243	-21.497376	-34.115481	37.000230	10.005760	47.792942	34.636441	20.741975	4.879495	47.117995	33.241024	9.035779	-5.044890	61.943917	42.922239	1.441551	-8.706650	62.000459	43.213695
-0.785000	-3.856690	-4.835354	96.479781	-0.109245	-0.183932	-0.040100	86.981084	-0.452222	-2.979795	17.530795	3.244793	-21.499104	-34.108536	37.032715	10.000481	47.813532	34.649022	20.758990	4.876109	47.127873	33.242284	9.062047	-5.050869	61.951316	42.926261	1.425963	-8.681799	62.013174	43.233883
-0.775000	-3.856690	-4.835354	96.479781	-0.109226	-0.183951	-0.040099	86.989084	-0.445292	-2.997641	17.507411	3.236744	-21.516628	-34.116503	37.067501	9.989477	47.831647	34.655521	20.774360	4.873707	47.128617	33.241733	9.083499	-5.056567	61.944162	42.927486	1.398937	-8.661130	62.047163	43.261814
-0.765000	-3.856690	-4.835354	96.479781	-0.109209	-0.183975	-0.040098	86.990541	-0.439002	-3.015731	17.492071	3.218636	-21.543985	-34.135730	37.098141	9.975614	47.852361	34.659195	20.786067	4.874597	47.124382	33.242807	9.096327	-5.060977	61.929694	42.929882	1.373652	-8.652479	62.100278	43.294104
-0.755000	-3.856690	-4.835354	96.479781	-0.109191	-0.184002	-0.040095	86.984860	-0.435997	-3.032643	17.481269	3.195068	-21.572067	-34.158594	37.121320	9.962271	47.880207	34.664308	20.793238	4.879491	47.121680	33.248846	9.099817	-5.062946	61.917673	42.937155	1.362639	-8.661493	62.165263	43.326333
-0.745000	-3.856690	-4.835354	96.479781	-0.109171	-0.184028	-0.040091	86.973627	-0.437112	-3.047131	17.471615	3.170888	-21.592769	-34.177385	37.136637	9.952138	47.916939	34.674071	20.796144	4.887145	47.126970	33.262090	9.096178	-5.061475	61.916311	42.951284	1.373969	-8.689653	62.231902	43.354123
-0.735000	-3.856690	-4.835354	96.479781	-0.109149	-0.184050	-0.040086	86.960193	-0.440959	-3.058630	17.461784	3.147828	-21.602078	-34.187661	37.145058	9.946699	47.960418	34.689140	20.796027	4.894934	47.144154	33.282845	9.089243	-5.056306	61.929399	42.971874	1.408660	-8.733199	62.290531	43.374334
-0.725000	-3.856690	-4.835354	96.479781	-0.109127	-0.184069	-0.040086	86.948875	-0.444607	-3.067468	17.453021	3.123473	-21.600983	-34.189639	37.147609	9.946204	48.005233	34.707410	20.794702	4.900057	47.173104	33.309253	9.083022	-5.048570	61.955550	42.996507	1.460034	-8.783355	62.335467	43.386023
-0.715000	-3.856690	-4.835354	96.479781	-0.109106	-0.184084	-0.040090	86.943965	-0.444887	-3.074626	17.447835	3.092984	-21.594189	-34.187295	37.145230	9.949838	48.044759	34.725136	20.794074	4.900828	47.209674	33.337795	9.081021	-5.041004	61.989386	43.021723	1.515492	-8.828169	62.366706	43.390728
-0.705000	-3.856690	-4.835354	96.479781	-0.109088	-0.184095	-0.040098	86.948640	-0.439564	-3.081262	17.447684	3.052471	-21.587474	-34.185837	37.139398	9.956016	48.073700	34.738704	20.795797	4.897441	47.247025	33.364312	9.086357	-5.037231	62.023863	43.044146	1.560796	-8.855955	62.388974	43.391863
